<svg width="482" height="93" viewBox="0 0 482 93" fill="none" xmlns="http://www.w3.org/2000/svg">
<path fill-rule="evenodd" clip-rule="evenodd" d="M347.752 54.6211L333.474 45.8451L337.404 8.77606L353.515 0H386.655L400.932 8.77606L399.098 26.1972H380.76L381.808 15.7183H354.956L352.598 37.593H382.594L396.872 46.369L392.942 84.2239L376.831 93H342.382L328.104 84.2239L329.938 66.8028H348.276L347.228 77.2817H375.39L377.748 54.6211H347.752ZM218.486 38.2479L221.499 9.43099L207.221 0.65493H157.578L148.016 92.3451H197.66L213.771 83.569L217.045 51.6085L206.305 45.0592L206.436 44.7972L218.486 38.2479ZM170.414 52.7873H198.576L196.088 76.6268H167.926L170.414 52.7873ZM174.213 16.3732H202.375L200.279 37.069H172.117L174.213 16.3732ZM289.748 0.65493H270.886L228.577 92.3451H246.653L255.56 72.5662H289.879L294.856 92.3451H312.932L289.748 0.65493ZM277.828 23.7084H278.09L285.949 56.8479H262.765L277.828 23.7084ZM439.478 53.0493H468.164L469.867 37.331H441.181L443.277 16.3732H479.822L481.524 0.65493H426.641L417.079 92.3451H471.962L473.534 76.6268H436.989L439.478 53.0493ZM96.915 50.8037H117.03L118.224 39.6886H98.109L99.5786 24.8685H125.205L126.399 13.7534H87.9137L81.2086 78.5914H119.694L120.796 67.4763H95.1698L96.915 50.8037ZM69.4743 78.5915L57.9167 54.1383L69.2894 47.9324L72.2481 19.9594L62.1699 13.7535H27.1273L24.0943 42.8896H1.23501L0 54.3799H22.8981L20.3777 78.5915H33.3222L35.8153 54.3799H43.8429L55.2353 78.5915H69.4743ZM56.6046 42.8896H37.0503L38.8698 24.8686H58.7488L56.8105 42.8896H56.6046Z" fill="white"/>
</svg>
