<svg id="bi" xmlns="http://www.w3.org/2000/svg" width="203.861" height="32" viewBox="0 0 203.861 32">
  <g id="그룹_138" data-name="그룹 138" transform="translate(-816.207 -291.148)">
    <path id="패스_543" data-name="패스 543" d="M974.113,305.17a7.346,7.346,0,0,1,1.412,1.978,7.359,7.359,0,0,0-1.412-8.425l-5.421-5.421a7.359,7.359,0,0,0-8.425-1.412,7.344,7.344,0,0,1,1.978,1.412Z" transform="translate(-128.06)" fill="#00d7fa"/>
    <path id="패스_544" data-name="패스 544" d="M818.361,437.186a7.343,7.343,0,0,1-1.412-1.978,7.359,7.359,0,0,0,1.412,8.425l5.421,5.421a7.359,7.359,0,0,0,8.425,1.412,7.345,7.345,0,0,1-1.978-1.412Z" transform="translate(0 -128.06)" fill="#00d7fa"/>
    <path id="패스_545" data-name="패스 545" d="M975.525,435.208a7.346,7.346,0,0,1-1.412,1.978l-11.868,11.868a7.341,7.341,0,0,1-1.978,1.412,7.359,7.359,0,0,0,8.425-1.412l5.421-5.421A7.359,7.359,0,0,0,975.525,435.208Z" transform="translate(-128.06 -128.06)" fill="#ffd83d"/>
    <path id="패스_546" data-name="패스 546" d="M830.229,293.3a7.343,7.343,0,0,1,1.978-1.412,7.359,7.359,0,0,0-8.425,1.412l-5.421,5.421a7.359,7.359,0,0,0-1.412,8.425,7.344,7.344,0,0,1,1.412-1.978Z" fill="#ffd83d"/>
  </g>
  <g id="그룹_36737" data-name="그룹 36737" transform="translate(-125.84 -399.196)">
    <path id="패스_30855" data-name="패스 30855" d="M181.53,415.346l-6.539-9.13h-2.15v17.963h2.471v-13.3l5.557,7.774h1.089l5.76-7.8v13.328h2.5V406.216h-2.051Z" transform="translate(0 -0.008)" fill="#fff"/>
    <path id="패스_30856" data-name="패스 30856" d="M215.167,416.154h7.659v-2.246h-7.659v-5.445h7.88v-2.246h-10.4v17.963h10.671v-2.246h-8.15Z" transform="translate(-14.762 -0.008)" fill="#fff"/>
    <path id="패스_30857" data-name="패스 30857" d="M237.856,408.462h5.818v15.717h2.52V408.462h5.795v-2.246H237.856Z" transform="translate(-24.111 -0.008)" fill="#fff"/>
    <path id="패스_30858" data-name="패스 30858" d="M271.21,406.216,263.079,424.2h2.629l2.48-5.644h7.294l2.528,5.644h2.772l-8.131-17.987Zm-2.028,10.12,2.631-6,2.686,6Z" transform="translate(-33.465 -0.008)" fill="#fff"/>
    <path id="패스_30859" data-name="패스 30859" d="M305.286,406.216l-5.222.028v17.935h2.52v-7.335h2.7c3.755,0,6.182-2.081,6.182-5.3C311.471,408.307,309.044,406.216,305.286,406.216Zm3.566,5.326c0,1.95-1.206,3.036-3.395,3.056l-2.873.02v-6.156h2.876C307.648,408.462,308.852,409.556,308.852,411.542Z" transform="translate(-47.181 -0.008)" fill="#fff"/>
    <path id="패스_30860" data-name="패스 30860" d="M328.943,424.171h2.52V406.2l-2.52.049Z" transform="translate(-57.891)" fill="#fff"/>
    <path id="패스_30861" data-name="패스 30861" d="M358.229,406.216h-3.04l-4.975,6.39-4.86-6.39h-3.13l6.44,8.443-7.387,9.521h2.991l5.884-7.557,5.768,7.581h3.152l-7.322-9.633Z" transform="translate(-62.465 -0.008)" fill="#fff"/>
    <path id="패스_30862" data-name="패스 30862" d="M380.441,416.154H388.1v-2.246h-7.659v-5.445h7.88v-2.246h-10.4v17.963h10.671v-2.246h-8.15Z" transform="translate(-76.053 -0.008)" fill="#fff"/>
    <path id="패스_30863" data-name="패스 30863" d="M408.2,421.932V406.216h-2.5v17.963h10.352v-2.246Z" transform="translate(-86.358 -0.008)" fill="#fff"/>
  </g>
</svg>
